<?xml version="1.0" encoding="UTF-8"?>
<svg width="120px" height="119px" viewBox="0 0 120 119" version="1.1" xmlns="http://www.w3.org/2000/svg" xmlns:xlink="http://www.w3.org/1999/xlink">
    <title>quality</title>
    <g id="Page-1" stroke="none" stroke-width="1" fill="none" fill-rule="evenodd">
        <g id="index.html" transform="translate(-340.000000, -2724.000000)">
            <g id="Section-3" transform="translate(200.000000, 2499.000000)">
                <g id="Plan_1" transform="translate(0.000000, 195.000000)">
                    <g id="quality" transform="translate(140.000000, 30.000000)">
                        <path d="M67.5805197,2.57170308 L75.2020394,8.29816998 C77.2865449,9.86429092 79.4805505,10.6657955 82.0803073,10.8110902 L91.585582,11.3418298 C97.2773467,11.6595207 101.900109,15.5528658 103.200112,21.1242513 L105.371618,30.4283798 C105.965369,32.9729186 107.132872,35.002527 109.031377,36.7909814 L115.973145,43.3307471 C120.129656,47.2464259 121.177409,53.2115374 118.605902,58.3181807 L114.311141,66.8464006 C113.136638,69.1788944 112.731137,71.4867961 113.040138,74.0817739 L114.170141,83.5703439 C114.846642,89.2518924 111.829384,94.497306 106.589371,96.7500007 L97.8378482,100.512104 C95.444342,101.540961 93.6558373,103.047358 92.2308336,105.234557 L87.0200701,113.232037 C83.900062,118.020739 78.2295473,120.092254 72.7730331,118.437049 L63.6600095,115.672686 C61.167753,114.916602 58.832997,114.916602 56.3404905,115.672686 L47.2274669,118.437049 C41.7709527,120.092254 36.100438,118.020739 32.9804299,113.232037 L27.7696664,105.234557 C26.3444127,103.047358 24.555908,101.540961 22.1626518,100.512104 L13.4106291,96.7494988 C8.17061552,94.4968041 5.15335769,89.2513905 5.82985944,83.569842 L6.95986237,74.0812721 C7.26886318,71.4862942 6.86336212,69.1783926 5.68885908,66.8458987 L1.39409793,58.3176788 C-1.17740874,53.2112864 -0.129656022,47.2461749 4.02685476,43.3302452 L10.9686228,36.7904795 C12.8671277,35.0020251 14.0343807,32.9724167 14.6281323,30.4278779 L16.7996379,21.1237494 C18.0996413,15.5526148 22.7224033,11.6592698 28.414168,11.3413279 L37.9194427,10.8105883 C40.5191995,10.6655446 42.7132051,9.86378904 44.7977106,8.29766809 L52.4192303,2.5712012 C56.9824922,-0.85715071 63.0170078,-0.85715071 67.5805197,2.57170308 Z" id="Path" fill="#AEB8C4"></path>
                        <path d="M67.5805197,2.57170308 L75.2020394,8.29816998 C77.2865449,9.86429092 79.4805505,10.6657955 82.0803073,10.8110902 L91.585582,11.3418298 C97.2773467,11.6595207 101.900109,15.5528658 103.200112,21.1242513 L105.371618,30.4283798 C105.965369,32.9729186 107.132872,35.002527 109.031377,36.7909814 L115.973145,43.3307471 C120.129656,47.2464259 121.177409,53.2115374 118.605902,58.3181807 L114.311141,66.8464006 C113.136638,69.1788944 112.731137,71.4867961 113.040138,74.0817739 L114.170141,83.5703439 C114.846642,89.2518924 111.829384,94.497306 106.589371,96.7500007 L97.8378482,100.512104 C95.444342,101.540961 93.6558373,103.047358 92.2308336,105.234557 L87.0200701,113.232037 C84.1358126,117.658882 79.0722995,119.763271 74.0130364,118.748467 C77.2180447,118.093511 80.1013022,116.176826 82.0200571,113.232037 L87.2308207,105.234557 C88.6558244,103.047358 90.444329,101.54071 92.8378352,100.512104 L101.589358,96.7500007 C106.829622,94.497306 109.846629,89.2518924 109.170128,83.5703439 L108.040125,74.0817739 C107.731124,71.4867961 108.136625,69.1788944 109.311128,66.8464006 L113.605889,58.3181807 C116.177396,53.2117883 115.129643,47.2466768 110.973132,43.3307471 L104.031364,36.7909814 C102.132859,35.002527 100.965606,32.9729186 100.371605,30.4283798 L98.2000991,21.1242513 C96.9000957,15.5531167 92.2773338,11.6597717 86.585569,11.3418298 L77.0802943,10.8110902 C74.4805376,10.6660465 72.2865319,9.86429092 70.2020265,8.29816998 L62.5805067,2.57170308 C61.0197526,1.39905717 59.2869981,0.627665442 57.4999935,0.257026021 C60.9380024,-0.455896523 64.5777619,0.315495205 67.5805197,2.57170308 Z M56.3402405,115.672185 L47.2272169,118.436547 C45.1262114,119.073937 42.9937059,119.158002 40.9872007,118.747965 C41.4051679,118.664085 41.8188929,118.560161 42.2269539,118.436547 L51.3399775,115.672185 C53.442233,115.034544 55.4324881,114.93467 57.4997435,115.372812 C57.1091786,115.456013 56.7223262,115.555895 56.3402405,115.672185 Z" id="Shape" fill="#6D7278"></path>
                        <ellipse id="Oval" fill="#6D7278" transform="translate(59.998896, 59.499800) rotate(-45.001000) translate(-59.998896, -59.499800) " cx="59.9988964" cy="59.4997996" rx="38.9597846" ry="38.9597795"></ellipse>
                        <path d="M59.99975,20.4670376 C60.8400022,20.4670376 61.6730043,20.4968995 62.5000065,20.5495971 C42.1887038,21.8436983 26.1134121,38.78596 26.1134121,59.4998605 C26.1134121,80.213761 42.1889538,97.1560227 62.5000065,98.4501239 C61.6732543,98.5028215 60.8400022,98.5326834 60,98.5326834 C38.5234443,98.5326834 21.1133991,81.0571727 21.1133991,59.4998605 C21.1133991,37.9427992 38.5231943,20.4670376 59.99975,20.4670376 L59.99975,20.4670376 Z" id="Path" fill="#4C4F54"></path>
                        <path d="M55.1379874,62.7771461 L73.1370341,44.5302437 C75.2675396,42.370397 78.7435486,42.3641235 80.8890542,44.5061534 C83.0343098,46.6474304 83.0410598,50.1264724 80.9128043,52.2825549 C73.6140353,59.6765228 66.3645165,67.119675 59.0319975,74.4797659 C56.8882419,76.6315824 53.4112329,76.6313315 51.2674773,74.4797659 L39.1021958,62.2689912 C36.9584402,60.1171746 36.9584402,56.6270913 39.1021958,54.4752748 C41.2457013,52.3234582 44.7232104,52.3234582 46.8667159,54.4752748 L55.1379874,62.7771461 L55.1379874,62.7771461 Z" id="Path" fill="#ECEFF1"></path>
                    </g>
                </g>
            </g>
        </g>
    </g>
</svg>