<?xml version="1.0" encoding="UTF-8"?>
<svg width="239px" height="80px" viewBox="0 0 239 80" version="1.1" xmlns="http://www.w3.org/2000/svg" xmlns:xlink="http://www.w3.org/1999/xlink">
    <title>Download_on_the_App_Store_Badge_US-UK_RGB_blk_092917</title>
    <g id="Page-1" stroke="none" stroke-width="1" fill="none" fill-rule="evenodd">
        <g id="Download_on_the_App_Store_Badge_US-UK_RGB_blk_092917" fill-rule="nonzero">
            <g id="Group">
                <g id="Path">
                    <path d="M219.967531,2.01227269e-16 L19.0432142,2.01227269e-16 C18.3108198,2.01227269e-16 17.5872133,2.01227269e-16 16.8567562,0.00425998616 C16.2452957,0.00825997316 15.6387085,0.0198799354 15.0213761,0.0296599036 C13.6802448,0.0454634595 12.3422674,0.163611988 11.0190711,0.383078755 C9.69773346,0.607323282 8.41778766,1.03008813 7.22252369,1.63707468 C6.02872156,2.24919611 4.93791043,3.04458517 3.98966231,3.99438702 C3.03643606,4.94151793 2.24184837,6.03627314 1.6364532,7.23655648 C1.02938716,8.43445083 0.608445619,9.71810501 0.388167058,11.0431841 C0.165794252,12.3665896 0.0461334215,13.7052565 0.030258456,15.0471711 C0.0117239034,15.6603691 0.00976659076,16.2756071 0,16.8888851 L0,63.1172549 C0.00976659076,63.7382529 0.0117239034,64.3398509 0.030258456,64.9610489 C0.0461382895,66.3028969 0.165799122,67.641497 0.388167058,68.9648359 C0.607837363,70.2906896 1.0288038,71.5750807 1.6364532,72.7734235 C2.24157349,73.9698254 3.03627291,75.0601485 3.98966231,76.002013 C4.93431497,76.956038 6.02583118,77.7519682 7.22252369,78.3594053 C8.41777858,78.9680164 9.69758639,79.3932977 11.0190711,79.6210012 C12.3424923,79.83871 13.6803321,79.9569065 15.0213761,79.9746001 C15.6387085,79.9882 16.2452957,79.996 16.8567562,79.996 C17.5871933,80 18.3108597,80 19.0432142,80 L219.967531,80 C220.685345,80 221.414744,80 222.132559,79.996 C222.741123,79.996 223.365266,79.9882 223.97383,79.9746001 C225.312339,79.9578475 226.64766,79.8396435 227.968346,79.6210012 C229.294094,79.3916947 230.57849,78.9665261 231.779514,78.3594053 C232.975127,77.7516165 234.065635,76.955708 235.009479,76.002013 C235.960408,75.0564597 236.756805,73.9669341 237.369439,72.7734235 C237.972528,71.5742089 238.389488,70.2899205 238.605941,68.9648359 C238.828665,67.6413154 238.952572,66.3030131 238.976632,64.9610489 C238.984421,64.3398509 238.984421,63.7382529 238.984421,63.1172549 C239,62.3906572 239,61.6680596 239,60.929662 L239,19.072458 C239,18.3400404 239,17.6134828 238.984421,16.8888851 C238.984421,16.2756071 238.984421,15.6603691 238.976632,15.0470911 C238.952577,13.7050603 238.82867,12.3666911 238.605941,11.0431041 C238.388884,9.71879161 237.97195,8.43523914 237.369439,7.23647648 C236.13658,4.83063646 234.181622,2.87230146 231.779514,1.63689468 C230.578486,1.03139141 229.293953,0.608738842 227.968346,0.382898756 C226.647889,0.162465038 225.312428,0.0442753859 223.97383,0.0293799045 C223.365266,0.0196199362 222.741123,0.00789997433 222.132559,0.003999987 C221.414744,2.01227269e-16 220.685345,2.01227269e-16 219.967531,2.01227269e-16 L219.967531,2.01227269e-16 Z" fill="#A6A6A6"></path>
                    <path d="M16.8665028,78.2500057 C16.2579783,78.2500057 15.6641536,78.2422057 15.0604025,78.2286058 C13.8096833,78.2122873 12.5618872,78.1032562 11.327248,77.9024068 C10.1760092,77.7038638 9.06076832,77.3345376 8.01831109,76.8066104 C6.98541264,76.2830574 6.04332622,75.59656 5.22814191,74.773417 C4.40115799,73.9599701 3.7126561,73.0165106 3.18992033,71.9804261 C2.66142446,70.9376077 2.29567387,69.8198322 2.10540933,68.6660368 C1.89994015,67.4262706 1.78877281,66.1726714 1.77286591,64.916049 C1.76020329,64.4942504 1.74362605,63.089855 1.74362605,63.089855 L1.74362605,16.8888851 C1.74362605,16.8888851 1.76128181,15.5060696 1.77296577,15.0998109 C1.78819651,13.8451791 1.89871741,12.5935253 2.10357186,11.3556831 C2.29418759,10.198727 2.66022134,9.07772823 3.18900159,8.0314939 C3.70981618,6.99612496 4.39449565,6.05196092 5.2164979,5.23560298 C6.03757624,4.4114885 6.98267621,3.72145614 8.01733244,3.19066963 C9.0573938,2.66443855 10.1705271,2.29771762 11.3194387,2.10279317 C12.5581327,1.8999261 13.8102606,1.79024635 15.0653158,1.77467423 L16.8674814,1.75025431 L222.122772,1.75025431 L223.946468,1.77565423 C225.190107,1.79045258 226.430861,1.89915384 227.658172,2.10083317 C228.818714,2.29820267 229.943448,2.6674824 230.99539,3.19652961 C233.068181,4.26621823 234.754772,5.95856653 235.818768,8.03637388 C236.339108,9.07538563 236.699496,10.1872404 236.8877,11.3342032 C237.094994,12.5822019 237.21101,13.8436917 237.234824,15.1086109 C237.240616,15.6750091 237.240616,16.2834071 237.240616,16.8888851 C237.256394,17.6388827 237.256394,18.3527404 237.256394,19.072458 L237.256394,60.929662 C237.256394,61.6562596 237.256394,62.3652573 237.240616,63.080055 C237.240616,63.7304529 237.240616,64.3262509 237.232826,64.9394489 C237.209528,66.1817962 237.095446,67.4207694 236.891495,68.6464369 C236.70513,69.8085554 236.341371,70.9350557 235.812976,71.986426 C235.286545,73.011265 234.601997,73.9465521 233.784561,74.757817 C232.968643,75.5853836 232.024894,76.2758975 230.989598,76.8028104 C229.94057,77.334796 228.817492,77.705488 227.658172,77.9024068 C226.423626,78.1043281 225.17571,78.2133661 223.924898,78.2286058 C223.339901,78.2422057 222.727342,78.2500057 222.132559,78.2500057 L219.967531,78.2540057 L16.8665028,78.2500057 Z" fill="#000000"></path>
                </g>
                <g id="_Group_" transform="translate(19.915791, 17.440743)" fill="#FFFFFF">
                    <g id="_Group_3">
                        <path d="M29.5540483,23.1607447 C29.5977023,19.767814 31.3740353,16.6337782 34.2607062,14.8566517 C32.4313631,12.2404458 29.4771779,10.6411821 26.2893306,10.5413057 C22.9354554,10.1887869 19.6840195,12.5509592 17.974946,12.5509592 C16.232798,12.5509592 13.6014108,10.5763056 10.7678412,10.6346854 C7.03960248,10.7553019 3.64813069,12.8264693 1.83426672,16.0904077 C-2.02842991,22.7872259 0.852794258,32.629294 4.55293407,38.0424964 C6.40419235,40.6931877 8.56778181,43.6540781 11.3987949,43.5490785 C14.1691113,43.4340188 15.2037708,41.7801242 18.5477796,41.7801242 C21.8607509,41.7801242 22.8314782,43.5490785 25.7199324,43.4823187 C28.692611,43.4339988 30.5655395,40.8198473 32.351847,38.144056 C33.681973,36.2553416 34.7055028,34.1679008 35.3845232,31.9590561 C31.8538838,30.4637235 29.5581691,26.9994409 29.5540483,23.1607447 L29.5540483,23.1607447 Z" id="_Path_"></path>
                        <path d="M24.0982789,6.98121731 C25.7191067,5.03280745 26.5176271,2.52845669 26.3242627,0 C23.8479982,0.260440128 21.5606234,1.44555465 19.9178984,3.31920921 C18.295783,5.16782126 17.4740231,7.5863007 17.6336147,10.0419674 C20.1430829,10.0678408 22.5257701,8.93973738 24.0982789,6.98121731 L24.0982789,6.98121731 Z" id="_Path_2"></path>
                    </g>
                    <g id="Group" transform="translate(48.844343, 18.301481)">
                        <path d="M15.7284054,18.5371598 L6.27458518,18.5371598 L4.00426227,25.2500379 L0,25.2500379 L8.95450573,0.414118654 L13.1147938,0.414118654 L22.0692995,25.2500379 L17.996751,25.2500379 L15.7284054,18.5371598 Z M7.25370088,15.4395098 L14.7474122,15.4395098 L11.0532642,4.54500523 L10.9498861,4.54500523 L7.25370088,15.4395098 Z" id="Shape"></path>
                        <path d="M41.407988,16.1973274 C41.407988,21.8242691 38.4003974,25.4394773 33.8617089,25.4394773 C31.5157004,25.5623662 29.3058887,24.3319023 28.1722603,22.2714876 L28.0863782,22.2714876 L28.0863782,31.2402185 L24.3746743,31.2402185 L24.3746743,7.14265679 L27.9674615,7.14265679 L27.9674615,10.154367 L28.0357278,10.154367 C29.2197188,8.10686949 31.4319134,6.87693532 33.7934426,6.9531974 C38.3827616,6.9532174 41.407988,10.5860056 41.407988,16.1973274 Z M37.592906,16.1973274 C37.592906,12.5313393 35.7009636,10.1211671 32.8143069,10.1211671 C29.9783606,10.1211671 28.0708196,12.5820991 28.0708196,16.1973274 C28.0708196,19.8457555 29.9783606,22.2891076 32.8143069,22.2891076 C35.7009836,22.2891076 37.592906,19.8965353 37.592906,16.1973274 Z" id="Shape"></path>
                        <path d="M61.3103427,16.1973274 C61.3103427,21.8242691 58.302752,25.4394773 53.7640635,25.4394773 C51.4180551,25.5623662 49.2082433,24.3319023 48.074615,22.2714876 L47.9887329,22.2714876 L47.9887329,31.2402185 L44.2770289,31.2402185 L44.2770289,7.14265679 L47.8697363,7.14265679 L47.8697363,10.154367 L47.9380025,10.154367 C49.1220022,8.10687073 51.3342053,6.8769438 53.6957373,6.9532174 C58.2851961,6.9532174 61.3103427,10.5860056 61.3103427,16.1973274 Z M57.4952807,16.1973274 C57.4952807,12.5313393 55.6033183,10.1211671 52.7166616,10.1211671 C49.8807152,10.1211671 47.9731742,12.5820991 47.9731742,16.1973274 C47.9731742,19.8457555 49.8807152,22.2891076 52.7166616,22.2891076 C55.6033382,22.2891076 57.4952807,19.8965353 57.4952807,16.1973274 L57.4952807,16.1973274 Z" id="Shape"></path>
                        <path d="M74.4641629,18.3301204 C74.7391853,20.7930124 77.1285048,22.4101072 80.393522,22.4101072 C83.5220467,22.4101072 85.7728564,20.7929324 85.7728564,18.5722196 C85.7728564,16.6444859 84.4153402,15.4902297 81.2010134,14.6991922 L77.9866866,13.9237947 C73.4323995,12.8222383 71.3181023,10.6894253 71.3181023,7.22849651 C71.3181023,2.94335043 75.0473622,0 80.3428117,0 C85.5836162,0 89.1763834,2.94335043 89.2973174,7.22849651 L85.5504617,7.22849651 C85.3261697,4.74998456 83.2801388,3.25390942 80.290104,3.25390942 C77.3000693,3.25390942 75.2540584,4.76758451 75.2540584,6.97069735 C75.2540584,8.72655164 76.5608642,9.75974828 79.7576351,10.5506857 L82.4902034,11.2225635 C87.5789167,12.4276396 89.6932138,14.474553 89.6932138,18.1073012 C89.6932138,22.7537661 85.9971085,25.6639166 80.1184597,25.6639166 C74.6181914,25.6639166 70.9045501,22.8221258 70.6646395,18.3299404 L74.4641629,18.3301204 Z" id="Path"></path>
                        <path d="M97.7037356,2.85751071 L97.7037356,7.14265679 L101.142374,7.14265679 L101.142374,10.0860072 L97.7037356,10.0860072 L97.7037356,20.0683948 C97.7037356,21.6191697 98.3922503,22.3418274 99.903835,22.3418274 C100.312057,22.3346993 100.719619,22.3059928 101.124819,22.2558277 L101.124819,25.1815982 C100.445208,25.3087569 99.7544417,25.3663465 99.0631891,25.3534776 C95.4022156,25.3534776 93.9744758,23.9765221 93.9744758,20.4648135 L93.9744758,10.0860072 L91.3452856,10.0860072 L91.3452856,7.14265679 L93.9744359,7.14265679 L93.9744359,2.85751071 L97.7037356,2.85751071 Z" id="Path"></path>
                        <path d="M103.13386,16.1973274 C103.13386,10.5000859 106.48472,6.92001751 111.709985,6.92001751 C116.952787,6.92001751 120.288048,10.5000059 120.288048,16.1973274 C120.288048,21.9102088 116.970343,25.4746372 111.709985,25.4746372 C106.451485,25.4746372 103.13386,21.9101888 103.13386,16.1973274 Z M116.506121,16.1973274 C116.506121,12.2891401 114.717556,9.98250756 111.709965,9.98250756 C108.702375,9.98250756 106.915768,12.30672 106.915768,16.1973274 C106.915768,20.1211346 108.702375,22.4102072 111.709965,22.4102072 C114.717556,22.4102072 116.506121,20.1211346 116.506121,16.1973274 L116.506121,16.1973274 Z" id="Shape"></path>
                        <path d="M123.348207,7.14265679 L126.888286,7.14265679 L126.888286,10.2246468 L126.974168,10.2246468 C127.467842,8.24063003 129.283263,6.87516077 131.323656,6.9531774 C131.751397,6.95168187 132.177958,6.99819875 132.59535,7.09185695 L132.59535,10.5684057 C132.055354,10.4031728 131.492045,10.327309 130.92764,10.3438064 C129.836435,10.2994774 128.78039,10.7349546 128.036792,11.5358945 C127.293194,12.3368343 126.936333,13.4232179 127.05991,14.5097928 L127.05991,25.2499979 L123.348207,25.2499979 L123.348207,7.14265679 Z" id="Path"></path>
                        <path d="M149.708515,19.9316752 C149.2092,23.2187645 146.012409,25.4746172 141.922325,25.4746172 C136.661967,25.4746172 133.39693,21.9453287 133.39693,16.2832471 C133.39693,10.6035855 136.679523,6.91999751 141.766299,6.91999751 C146.76919,6.91999751 149.915271,10.3613863 149.915271,15.8516085 L149.915271,17.1250443 L137.143746,17.1250443 L137.143746,17.3496436 C137.024504,18.6977025 137.489354,20.0320938 138.420053,21.0133916 C139.350752,21.9946893 140.657596,22.5283134 142.008167,22.4785269 C143.809378,22.6475256 145.507568,21.6118051 146.184074,19.9316552 L149.708515,19.9316752 Z M137.161266,14.5274128 L146.201609,14.5274128 C146.268968,13.3160717 145.828635,12.1315267 144.986698,11.2591465 C144.144761,10.3867663 142.977558,9.90564863 141.766299,9.93170772 C140.545459,9.9244122 139.372287,10.4057554 138.507544,11.2687499 C137.642801,12.1317443 137.158138,13.3048826 137.161266,14.5274128 L137.161266,14.5274128 Z" id="Shape"></path>
                    </g>
                </g>
            </g>
            <g id="Group" transform="translate(71.244024, 16.874205)" fill="#FFFFFF">
                <path d="M4.30462987,0.587998089 C5.88035955,0.47476682 7.42375194,1.07509136 8.5099986,2.22373641 C9.59624527,3.37238145 10.1108498,4.9482735 9.91217088,6.51765882 C9.91217088,10.3301464 7.85445606,12.5216393 4.30462987,12.5216393 L0,12.5216393 L0,0.587998089 L4.30462987,0.587998089 Z M1.85095869,10.8339648 L4.09787374,10.8339648 C5.22397153,10.9013686 6.32045525,10.457084 7.08287245,9.6244723 C7.84528966,8.79186058 8.1924712,7.65956394 8.02801777,6.54197874 C8.18050643,5.42903142 7.8283251,4.30607844 7.06779827,3.48025665 C6.30727144,2.65443487 5.21798719,2.21216541 4.09787374,2.27441261 L1.85095869,2.27441261 L1.85095869,10.8339648 Z" id="Shape"></path>
                <path d="M12.0030402,8.01465395 C11.8488262,6.4004293 12.621798,4.83820814 13.9977733,3.98318179 C15.3737487,3.12815543 17.1148255,3.12815543 18.4908008,3.98318179 C19.8667762,4.83820814 20.639748,6.4004293 20.485534,8.01465395 C20.6426821,9.63061323 19.8704158,11.1958644 18.4932204,12.0527314 C17.1160251,12.9095985 15.3725491,12.9095985 13.9953537,12.0527314 C12.6181583,11.1958644 11.8458921,9.63061323 12.0030402,8.01465395 Z M18.6599205,8.01465395 C18.6599205,6.0625203 17.7841429,4.92092401 16.2472131,4.92092401 C14.7044113,4.92092401 13.8365229,6.0625203 13.8365229,8.01467395 C13.8365229,9.98244756 14.7044712,11.1152439 16.2472131,11.1152439 C17.7841828,11.1152439 18.6599205,9.97460758 18.6599205,8.01465395 L18.6599205,8.01465395 Z" id="Shape"></path>
                <polygon id="Path" points="31.761073 12.5214593 29.9198609 12.5214593 28.0610929 5.88866086 27.9206657 5.88866086 26.0696871 12.5214593 24.2460109 12.5214593 21.7669946 3.51562857 23.5672628 3.51562857 25.1783309 10.3876062 25.3109688 10.3876062 27.1599901 3.51562857 28.8627323 3.51562857 30.7117537 10.3876062 30.8521809 10.3876062 32.4554396 3.51562857 34.2303427 3.51562857"></polygon>
                <path d="M36.3153601,3.51562857 L38.0239542,3.51562857 L38.0239542,4.94628392 L38.1565921,4.94628392 C38.6178286,3.89294323 39.6956048,3.24860439 40.8404073,3.34178914 C41.7268239,3.2750529 42.5954494,3.61556805 43.2010278,4.26719027 C43.8066062,4.91881249 44.0834209,5.81082863 43.9533134,6.69137825 L43.9533134,12.5213593 L42.1784103,12.5213593 L42.1784103,7.1376968 C42.1784103,5.69044151 41.5503726,4.97070385 40.2377148,4.97070385 C39.636472,4.94266217 39.0529818,5.17894831 38.6402173,5.61761531 C38.2274529,6.05628231 38.0265807,6.6535804 38.0902632,7.25291643 L38.0902632,12.5214593 L36.3153601,12.5214593 L36.3153601,3.51562857 Z" id="Path"></path>
                <polygon id="Path" points="46.7814704 0 48.5563735 0 48.5563735 12.5214393 46.7814704 12.5214393"></polygon>
                <path d="M51.023686,8.01465395 C50.8695904,6.4003237 51.6426841,4.838063 53.0187616,3.98302346 C54.394839,3.12798392 56.1360053,3.12798392 57.5120828,3.98302346 C58.8881603,4.838063 59.661254,6.4003237 59.5071584,8.01465395 C59.6641069,9.63067108 58.8916992,11.195878 57.5144354,12.0527073 C56.1371717,12.9095366 54.3936727,12.9095366 53.0164089,12.0527073 C51.6391452,11.195878 50.8667374,9.63067108 51.023686,8.01465395 L51.023686,8.01465395 Z M57.6805663,8.01465395 C57.6805663,6.0625203 56.8047887,4.92092401 55.2678588,4.92092401 C53.7250571,4.92092401 52.8571687,6.0625203 52.8571687,8.01467395 C52.8571687,9.98244756 53.725117,11.1152439 55.2678588,11.1152439 C56.8048087,11.1152439 57.6805663,9.97460758 57.6805663,8.01465395 L57.6805663,8.01465395 Z" id="Shape"></path>
                <path d="M61.375693,9.97460758 C61.375693,8.35351285 62.581078,7.41895589 64.7207004,7.28613632 L67.1568157,7.14551678 L67.1568157,6.3681793 C67.1568157,5.41700239 66.5287779,4.87990414 65.3156036,4.87990414 C64.324784,4.87990414 63.6382266,5.24416296 63.4412171,5.88088089 L61.7228763,5.88088089 C61.9042673,4.33400591 63.3573522,3.34182914 65.3975111,3.34182914 C67.6522355,3.34182914 68.9239295,4.46582549 68.9239295,6.3681793 L68.9239295,12.5214793 L67.2153353,12.5214793 L67.2153353,11.2558634 L67.0749081,11.2558634 C66.4946021,12.1801131 65.462629,12.7202851 64.373537,12.6698588 C63.6100575,12.7493822 62.848613,12.5017807 62.2774465,11.9882659 C61.70628,11.4747512 61.378701,10.7432517 61.375693,9.97460758 L61.375693,9.97460758 Z M67.1568157,9.20507008 L67.1568157,8.45215253 L64.960611,8.59277207 C63.7220715,8.6757718 63.1603427,9.09765043 63.1603427,9.89158785 C63.1603427,10.7021252 63.8624987,11.1738037 64.828053,11.1738037 C65.3996403,11.2317432 65.9702376,11.0549142 66.4092229,10.6837965 C66.8482081,10.3126787 67.1179922,9.77905033 67.1568157,9.20507008 Z" id="Shape"></path>
                <path d="M71.2566467,8.01465395 C71.2566467,5.1689632 72.7175409,3.36622906 74.9898012,3.36622906 C76.1371794,3.3132895 77.2118055,3.92893297 77.7477346,4.94622392 L77.8803725,4.94622392 L77.8803725,0 L79.6552756,0 L79.6552756,12.5214393 L77.9544908,12.5214393 L77.9544908,11.0985839 L77.8140636,11.0985839 C77.2376234,12.1074346 76.1497577,12.7126716 74.9898212,12.6698588 C72.7019424,12.6699588 71.2566467,10.8671847 71.2566467,8.01465395 Z M73.0901294,8.01465395 C73.0901294,9.92480774 73.9892949,11.074224 75.4930902,11.074224 C76.9890363,11.074224 77.9135869,9.9082278 77.9135869,8.02247393 C77.9135869,6.14552003 76.9793296,4.96290387 75.4930902,4.96290387 C73.9989816,4.96290387 73.0900695,6.12012011 73.0900695,8.01465395 L73.0901294,8.01465395 Z" id="Shape"></path>
                <path d="M86.9987133,8.01465395 C86.8444993,6.4004293 87.6174711,4.83820814 88.9934465,3.98318179 C90.3694218,3.12815543 92.1104986,3.12815543 93.486474,3.98318179 C94.8624493,4.83820814 95.6354211,6.4004293 95.4812071,8.01465395 C95.6383552,9.63061323 94.8660889,11.1958644 93.4888936,12.0527314 C92.1116982,12.9095985 90.3682222,12.9095985 88.9910268,12.0527314 C87.6138315,11.1958644 86.8415652,9.63061323 86.9987133,8.01465395 L86.9987133,8.01465395 Z M93.6555736,8.01465395 C93.6555736,6.0625203 92.779816,4.92092401 91.2428862,4.92092401 C89.7000844,4.92092401 88.832196,6.0625203 88.832196,8.01467395 C88.832196,9.98244756 89.7001443,11.1152439 91.2428862,11.1152439 C92.779836,11.1152439 93.6555736,9.97460758 93.6555736,8.01465395 Z" id="Shape"></path>
                <path d="M97.8626974,3.51562857 L99.5712915,3.51562857 L99.5712915,4.94628392 L99.7039294,4.94628392 C100.165166,3.89294323 101.242942,3.24860439 102.387745,3.34178914 C103.274161,3.2750529 104.142787,3.61556805 104.748365,4.26719027 C105.353943,4.91881249 105.630758,5.81082863 105.500651,6.69137825 L105.500651,12.5213593 L103.725748,12.5213593 L103.725748,7.1376968 C103.725748,5.69044151 103.09771,4.97070385 101.785052,4.97070385 C101.183809,4.94266217 100.600319,5.17894831 100.187555,5.61761531 C99.7747902,6.05628231 99.573918,6.6535804 99.6376005,7.25291643 L99.6376005,12.5214593 L97.8626974,12.5214593 L97.8626974,3.51562857 Z" id="Path"></path>
                <path d="M115.529861,1.27345586 L115.529861,3.55664844 L117.478366,3.55664844 L117.478366,5.05372358 L115.529861,5.05372358 L115.529861,9.68456853 C115.529861,10.6279255 115.918008,11.0410041 116.801555,11.0410041 C117.027755,11.0402792 117.253729,11.0265835 117.478366,10.9999843 L117.478366,12.4804394 C117.159622,12.5375407 116.836678,12.5679192 116.512891,12.5712591 C114.539041,12.5712591 113.753,11.8759414 113.753,10.139627 L113.753,5.05364358 L112.325281,5.05364358 L112.325281,3.55656844 L113.753,3.55656844 L113.753,1.27345586 L115.529861,1.27345586 Z" id="Path"></path>
                <path d="M119.902757,0 L121.662062,0 L121.662062,4.96288387 L121.802489,4.96288387 C122.285881,3.90032445 123.38252,3.2551645 124.544724,3.34960911 C125.426107,3.30158383 126.282974,3.64959557 126.881933,4.29885374 C127.480893,4.94811191 127.75956,5.83099232 127.642031,6.7070182 L127.642031,12.5214593 L125.865351,12.5214593 L125.865351,7.14547678 C125.865351,5.70700145 125.196269,4.97848382 123.942211,4.97848382 C123.324717,4.92777132 122.716352,5.15256517 122.279758,5.59276883 C121.843164,6.03297248 121.622859,6.64369903 121.67774,7.2616764 L121.67774,12.5214593 L119.902837,12.5214593 L119.902757,0 Z" id="Path"></path>
                <path d="M137.991202,10.0898272 C137.4935,11.7885807 135.851837,12.8861642 134.094213,12.6952787 C132.894987,12.726979 131.742464,12.2292217 130.942436,11.3340735 C130.142408,10.4389253 129.775754,9.23688186 129.939757,8.04687385 C129.78011,6.85355868 130.145391,5.64958911 130.940964,4.74687848 C131.736536,3.84416786 132.884118,3.33154268 134.086403,3.34180914 C136.588828,3.34180914 138.098475,5.05380358 138.098475,7.88179438 L138.098475,8.50197237 L131.747814,8.50197237 L131.747814,8.60157204 C131.691615,9.26985016 131.91954,9.93086322 132.375534,10.4220475 C132.831528,10.9132318 133.473281,11.1890115 134.142966,11.1815637 C135.011317,11.2859527 135.856598,10.8546308 136.282608,10.0897672 L137.991202,10.0898272 Z M131.747774,7.18749664 L136.290357,7.18749664 C136.335601,6.5762995 136.120987,5.97439073 135.699403,5.53010021 C135.277818,5.0858097 134.688472,4.84045672 134.076597,4.85450422 C133.456432,4.84670207 132.859404,5.09002593 132.420943,5.52927979 C131.982481,5.96853366 131.739751,6.56648613 131.747814,7.18749664 L131.747774,7.18749664 Z" id="Shape"></path>
            </g>
        </g>
    </g>
</svg>