<?xml version="1.0" encoding="UTF-8"?>
<svg width="94px" height="94px" viewBox="0 0 94 94" version="1.1" xmlns="http://www.w3.org/2000/svg" xmlns:xlink="http://www.w3.org/1999/xlink">
    <title>Content</title>
    <defs>
        <polygon id="path-1" points="6.92104601e-13 0 95 0 94.9198312 92.3128205 6.92104601e-13 94"></polygon>
    </defs>
    <g id="Page-1" stroke="none" stroke-width="1" fill="none" fill-rule="evenodd">
        <g id="Apple-TV" transform="translate(-111.000000, -50.000000)">
            <g id="Content" transform="translate(110.000000, 50.000000)">
                <g id="Path-11">
                    <mask id="mask-2" fill="white">
                        <use xlink:href="#path-1"></use>
                    </mask>
                    <g id="Mask"></g>
                    <path d="M5.60506329,1.20512821 L89.771516,1.20512821 C91.5388272,1.20512821 92.971516,2.63781701 92.971516,4.40512821 C92.971516,5.25262517 92.6353209,6.06551153 92.0366967,6.66542832 L77.1855969,21.5485953 C74.1840288,24.5566444 70.1091371,26.2470947 65.8596936,26.2470947 L30.7502319,26.2470947 C28.9829207,26.2470947 27.5502319,27.6797835 27.5502319,29.4470947 L27.5502319,53.4439472 C27.5502319,55.2112584 28.9829207,56.6439472 30.7502319,56.6439472 L34.8580465,56.6439472 C36.5323605,56.6439472 37.8896602,58.0012468 37.8896602,59.6755608 C37.8896602,60.4784619 37.5711559,61.2485735 37.0040317,61.8169223 L7.87024395,91.013617 C6.62191466,92.2646417 4.59578791,92.2668268 3.34476318,91.0184975 C2.74315335,90.4181839 2.40506329,89.6032056 2.40506329,88.7533169 L2.40506329,4.40512821 C2.40506329,2.63781701 3.83775209,1.20512821 5.60506329,1.20512821 Z" stroke="#6F58C9" stroke-width="1.6" mask="url(#mask-2)"></path>
                </g>
                <g id="Bar-Chart" transform="translate(26.856540, 23.700855)" stroke="#FFFFFF" stroke-width="1.6">
                    <rect id="Rectangle" x="30.0616034" y="29.3213675" width="8.02025316" height="40.1777778" rx="4.01012658"></rect>
                    <rect id="Rectangle" x="44.892827" y="14.8598291" width="8.02025316" height="54.6393162" rx="4.01012658"></rect>
                    <rect id="Rectangle" x="59.3232068" y="0.8" width="8.02025316" height="68.6991453" rx="4.01012658"></rect>
                    <rect id="Rectangle" x="15.6312236" y="42.5777778" width="8.02025316" height="26.9213675" rx="4.01012658"></rect>
                    <rect id="Rectangle" x="0.8" y="57.0393162" width="8.02025316" height="12.4598291" rx="4.01012658"></rect>
                </g>
            </g>
        </g>
    </g>
</svg>