<svg xmlns="http://www.w3.org/2000/svg" viewBox="0 0 1024 1024"><path d="M894 293.7c.3-2-.2-4.2-1.5-6.2-.1-.1-.2-.3-.3-.4-.1-.1-.2-.3-.3-.4-.1-.1-.2-.3-.3-.4l-.3-.3s0-.1-.1-.1l-29.3-29.3c-22.6-22.7-45.3-45.3-67.9-67.9-25.5-25.5-50.9-50.9-76.3-76.4l-54.6-54.6c-3.2-3.2-6.3-6.6-9.7-9.7-3.9-3.6-8.2-3-12.9-3H207c-16.8 0-33.7-1.5-49 7-17.4 9.8-27.8 28.5-28 48.3v818.8c0 1.7-.1 3.3 0 5 .3 27.5 20.8 50.9 48.1 54.4 9.2 1.2 18.8.5 28.1.5h614.1c11.6 0 24.4 1.1 35.5-2.6 22.7-7.5 38-28.6 38.3-52.5V293.7zM743.2 804H280.8c-11.2 0-19.5-9.2-20-20s9.5-20 20-20H312V577.2c0-5.5-.7-12.2 1.9-17.3 6.2-12.3 21.5-9.9 32.9-9.9h42.3c4.3 0 8.7.1 13 .2.5 0 1.1 0 1.6.1.3 0 .6.1.9.1.3 0 .6.1.9.1.2 0 .4.1.6.1.5.1 1 .2 1.5.4h.1c.7.2 1.4.5 2.1.8 5 2.2 8.5 6.5 10 12.2.3.9.8 2 .9 3.1 0 .2.1.3.1.4v.1c0 .3 0 .6.1 1 0 .1-.1.2-.1.3v195h41v-1.1c0-1.7.2-3.5.2-5.2 0-1.8.1-3.6.1-5.4.1-5.4.3-10.8.4-16.1 0-1.5.1-3.1.1-4.6 0-1.3 0-2.5.1-3.8V457.6c0-2.5-.2-4.9-.2-7.4 0-.9.1-1.9.2-2.8.1-.6.2-1.1.3-1.6l.6-2.1c.1-.2.2-.5.3-.7l.3-.6.9-1.8c.1-.1.1-.3.2-.4.2-.3.4-.7.7-1 2.7-3.8 6.9-6.4 12.1-7.1.5-.1 1.1-.1 1.7-.2 1.8-.1 3.7-.2 5.5-.2h1.3c10.1-.2 20.2.1 30.3.3H549c1.5 0 2.9-.2 4.4-.1 1.9.1 3.7.4 5.3 1 .1 0 .3.1.4.1 1.3.4 2.4 1 3.5 1.7.4.3.8.5 1.1.8.4.3.7.6 1.1.9l.5.5.5.5c.6.7 1.2 1.4 1.7 2.2.1.2.3.4.4.6.4.6.7 1.2 1 1.9.1.2.2.4.3.7.4.9.7 1.8.9 2.8.1.3.2.7.3 1 .1.2.1.5.2.7.1.6.2 1.2.2 1.9V764h42.4c0-12.8.6-25.6.6-38.4V503.1c0-2.5-.2-4.9.5-7.4 2.7-9.8 11.4-12.7 20.4-12.7H702c6 0 11.2 1.8 14.8 5.4.5.5 1 1.1 1.5 1.7.7.9 1.3 1.9 1.8 3s.9 2.3 1.3 3.5c.3.8.4 1.6.5 2.5V764h21.2c11.2 0 19.5 9.2 20 20s-9.5 20-19.9 20zm-49.7-521h-13.2c-.8 0-1.7-.1-2.5-.1-1.2-.3-2.4-.5-3.6-.8-1-.3-5.4-1.2-2.6-.8.3 0 .6.1.8.1-.4-.1-1-.3-1.4-.5-1-.5-1.9-1-2.9-1.6l-1.5-1c-.2-.3-2.7-2.3-3.2-2.7-.2-.2-1.1-1-1.9-1.8-.1-.2-.2-.4-.4-.6l-.3-.6c-.4-.5-.7-1.1-1.1-1.6-.2-.3-1-1.6-1.6-2.7-.1-.2-.2-.5-.3-.9-.1-.5-.3-.9-.5-1.4-.1-.2-.1-.3-.2-.5-.4-1.2 0-2.4-1-3.6v-1.3c-.1-.5-.2-.8-.2-1 0 .1.1.5.2.8 0-.7-.1-1.3-.1-1.7 0-1.7 0-3.3.1-5V154c0-13.5.2-27 .3-40.5l46.4 46.4L825.9 283H693.5z"/></svg>