<?xml version="1.0" encoding="UTF-8"?>
<svg width="92px" height="124px" viewBox="0 0 92 124" version="1.1" xmlns="http://www.w3.org/2000/svg" xmlns:xlink="http://www.w3.org/1999/xlink">
    <title>premium</title>
    <g id="Page-1" stroke="none" stroke-width="1" fill="none" fill-rule="evenodd">
        <g id="index.html" transform="translate(-1474.000000, -2724.000000)" fill-rule="nonzero">
            <g id="Section-3" transform="translate(200.000000, 2499.000000)">
                <g id="Plan_3" transform="translate(1120.000000, 195.000000)">
                    <g id="premium" transform="translate(154.000000, 30.000000)">
                        <path d="M58.1586127,65.328364 L46.0651802,86.1762717 L46,86.28605 L24.4830158,123.376164 C24.2631472,123.755854 23.8590208,123.992675 23.4187466,124 C22.9784724,124.006991 22.5667892,123.783434 22.3345764,123.411094 L15.392886,112.281066 C15.1722087,111.925823 14.7870208,111.704624 14.3675514,111.692254 L1.21368729,111.275596 C0.773058701,111.261672 0.37217313,111.018404 0.157946294,110.634943 C-0.056280543,110.251483 -0.0523500672,109.784211 0.168297288,109.404374 L18.9903312,76.9573848 L33.8413873,51.3565733 L58.1586127,65.328364 Z" id="Path" fill="#FFE64E"></path>
                        <path d="M90.7863127,111.275596 L77.6324486,111.692254 C77.2129792,111.704624 76.8277913,111.925823 76.607114,112.281066 L69.6654236,123.411094 C69.4332108,123.783434 69.0215276,124.006991 68.5812534,124 C68.1409792,123.992675 67.7368528,123.755854 67.5169842,123.376164 L46,86.28605 L45.9348198,86.1762717 L33.8413873,65.328364 L58.1586127,51.3565733 L73.0096688,76.9573848 L91.8317027,109.404374 C92.0523501,109.784211 92.0562805,110.251483 91.8420537,110.634943 C91.6278269,111.018404 91.2269413,111.261672 90.7863127,111.275596 L90.7863127,111.275596 Z" id="Path" fill="#FFE64E"></path>
                        <path d="M90.880824,42.7556887 C90.880824,47.3050035 85.2658011,50.9154639 83.9265989,55.0204259 C82.5385115,59.2748362 84.9007921,65.4715749 82.3111329,69.0126753 C79.6956523,72.5894537 73.0267159,72.2558772 69.4327804,74.8588717 C65.8744433,77.4361681 64.1471682,83.8656868 59.8720997,85.2471476 C55.747447,86.5799566 50.5713877,82.4323308 46,82.4323308 C41.428863,82.4323308 36.252553,86.5799566 32.1279003,85.2471476 C27.8530825,83.8656868 26.1255567,77.4359186 22.5672196,74.8588717 C18.9732841,72.2558772 12.3043477,72.5894537 9.6891178,69.0126753 C7.09945863,65.4715749 9.46148851,59.2748362 8.07340111,55.0206754 C6.73419886,50.9154639 1.11917601,47.3050035 1.11917601,42.7554392 C1.11917601,38.2063738 6.73419886,34.5956639 8.07340111,30.4907019 C9.46148851,26.2362917 7.09920794,20.0398025 9.6888671,16.4984526 C12.3043477,12.9216741 18.9732841,13.2555001 22.5672196,10.6525056 C26.1255567,8.07520924 27.8528318,1.64569057 32.1279003,0.264229764 C36.252553,-1.06882876 41.4286123,3.0787971 46,3.0787971 C50.571137,3.0787971 55.747447,-1.06882876 59.8720997,0.263980268 C64.1469175,1.64544107 65.8744433,8.07520924 69.4327804,10.6525056 C73.0267159,13.2555001 79.6956523,12.9216741 82.3108822,16.4982031 C84.9005414,20.0398025 82.5385115,26.2360422 83.9265989,30.4907019 C85.2658011,34.5956639 90.880824,38.2061243 90.880824,42.7556887 Z" id="Path" fill="#FFCD85"></path>
                        <path d="M73.0096688,76.9573848 C71.6809957,77.3765385 70.4375581,77.8730361 69.432279,78.6015652 C65.8749447,81.1788615 64.1476696,87.6083802 59.8733532,88.9905895 C55.7670011,90.3154147 50.6202728,86.2136961 46.0651802,86.1762717 C46.0217896,86.1729821 45.9782104,86.1729821 45.9348198,86.1762717 C41.3797272,86.2136961 36.2329989,90.3154147 32.1291538,88.9905895 C27.8523304,87.6083802 26.1250553,81.1788615 22.567721,78.6015652 C21.5624419,77.8730361 20.3190043,77.3765385 18.9903312,76.9573848 L33.8413873,51.3565733 L46,58.3424687 L58.1586127,51.3565733 L73.0096688,76.9573848 Z" id="Path" fill="#FFD815"></path>
                        <path d="M90.880824,42.7556887 C90.880824,47.3050035 85.2658011,50.9154639 83.9265989,55.0204259 C82.5385115,59.2748362 84.9007921,65.4715749 82.3111329,69.0126753 C79.6956523,72.5894537 73.0267159,72.2558772 69.4327804,74.8588717 C65.8744433,77.4361681 64.1471682,83.8656868 59.8720997,85.2471476 C55.747447,86.5799566 50.5713877,82.4323308 46,82.4323308 C41.428863,82.4323308 36.252553,86.5799566 32.1279003,85.2471476 C27.8530825,83.8656868 26.1255567,77.4359186 22.5672196,74.8588717 C18.9732841,72.2558772 12.3043477,72.5894537 9.6891178,69.0126753 C7.09945863,65.4715749 9.46148851,59.2748362 8.07340111,55.0206754 C6.73419886,50.9154639 1.11917601,47.3050035 1.11917601,42.7554392 C1.11917601,38.2063738 6.73419886,34.5956639 8.07340111,30.4907019 C9.46148851,26.2362917 7.09920794,20.0398025 9.6888671,16.4984526 C12.3043477,12.9216741 18.9732841,13.2555001 22.5672196,10.6525056 C26.1255567,8.07520924 27.8528318,1.64569057 32.1279003,0.264229764 C36.252553,-1.06882876 41.4286123,3.0787971 46,3.0787971 C50.571137,3.0787971 55.747447,-1.06882876 59.8720997,0.263980268 C64.1469175,1.64544107 65.8744433,8.07520924 69.4327804,10.6525056 C73.0267159,13.2555001 79.6956523,12.9216741 82.3108822,16.4982031 C84.9005414,20.0398025 82.5385115,26.2360422 83.9265989,30.4907019 C85.2658011,34.5956639 90.880824,38.2061243 90.880824,42.7556887 Z" id="Path" fill="#FF6666"></path>
                        <path d="M61.6605439,57.887637 L35.7860132,57.887637 C34.7273283,57.887637 33.7743494,57.2488418 33.3766024,56.2723982 L26.2353602,38.7412938 L39.7474647,45.8818768 C40.0568758,46.0453919 40.4195067,46.0776867 40.7531727,45.9714421 C41.0868387,45.8651975 41.3632869,45.6294096 41.5198646,45.3175163 L48.7232786,30.9794651 L55.9266926,45.3175163 C56.0833151,45.6293662 56.3597826,45.8650992 56.6934443,45.9712955 C57.0271059,46.0774918 57.3897123,46.0451601 57.6990924,45.8816273 L71.2109462,38.7412938 L64.0697041,56.2723982 C63.6719914,57.2487576 62.7191375,57.887637 61.6605439,57.887637 L61.6605439,57.887637 Z" id="Path" fill="#FF4E4E"></path>
                        <ellipse id="Oval" fill="#FF4E4E" cx="48.8396001" cy="26.446617" rx="4.51247483" ry="4.49093272"></ellipse>
                        <ellipse id="Oval" fill="#FF4E4E" cx="74.0342513" cy="36.0522231" rx="3.88574222" ry="3.86719206"></ellipse>
                        <ellipse id="Oval" fill="#FF4E4E" cx="23.3942559" cy="36.0522231" rx="3.88574222" ry="3.86719206"></ellipse>
                        <path d="M58.9460396,57.887637 L33.0717596,57.887637 C32.013166,57.887637 31.0603121,57.2487576 30.6625994,56.2723982 L23.5213573,38.7412938 L37.0332111,45.8818768 C37.3426222,46.0453919 37.7052531,46.0776867 38.0389191,45.9714421 C38.3725851,45.8651975 38.6490333,45.6294096 38.805611,45.3175163 L46.0090249,30.9794651 L53.2126896,45.3175163 C53.369314,45.6292993 53.6457372,45.8649827 53.9793379,45.9711746 C54.3129387,46.0773665 54.6754827,46.0450793 54.9848388,45.8816273 L68.4969433,38.7412938 L61.3557012,56.2723982 C60.9579885,57.2487576 60.0051346,57.887637 58.946541,57.887637 L58.9460396,57.887637 Z" id="Path" fill="#FFE64E"></path>
                        <path d="M49.4520432,45.3175163 C49.6086676,45.6292993 49.8850908,45.8649827 50.2186916,45.9711746 C50.5522923,46.0773665 50.9148363,46.0450793 51.2241924,45.8816273 L53.0191546,44.9330426 L46.0087743,30.9794651 L44.1285764,34.721909 L49.4520432,45.3175163 Z M63.704695,41.2736809 L57.5950548,56.2723982 C57.1973421,57.2487576 56.2444882,57.887637 55.1858946,57.887637 L58.9462903,57.887637 C60.0048839,57.887637 60.9577378,57.2487576 61.3554505,56.2723982 L68.4966926,38.7412938 L63.704695,41.2736809 Z M33.2725647,45.8818768 C33.5819758,46.0453919 33.9446067,46.0776867 34.2782727,45.9714421 C34.6119387,45.8651975 34.8883869,45.6294096 35.0449646,45.3175163 L35.2379982,44.9332921 L23.5211066,38.7412938 L24.5524578,41.2736809 L33.2725647,45.8818768 Z" id="Shape" fill="#FFDF1F"></path>
                        <path d="M62.8390519,67.5209372 L33.4615873,67.5209372 C32.4231827,67.5209372 31.5813894,66.6831625 31.5813894,65.6497152 C31.5813894,64.6162678 32.4231827,63.7784932 33.4615873,63.7784932 L62.8385505,63.7784932 C63.8769551,63.7784932 64.7187484,64.6162678 64.7187484,65.6497152 C64.7187484,66.6831625 63.8769551,67.5209372 62.8385505,67.5209372 L62.8390519,67.5209372 Z" id="Path" fill="#FF4E4E"></path>
                        <path d="M60.6973812,67.5209372 L31.3201673,67.5209372 C30.2817627,67.5209372 29.4399694,66.6831625 29.4399694,65.6497152 C29.4399694,64.6162678 30.2817627,63.7784932 31.3201673,63.7784932 L60.6973812,63.7784932 C61.7357858,63.7784932 62.5775791,64.6162678 62.5775791,65.6497152 C62.5775791,66.6831625 61.7357858,67.5209372 60.6973812,67.5209372 L60.6973812,67.5209372 Z" id="Path" fill="#FFE64E"></path>
                        <ellipse id="Oval" fill="#FFE64E" cx="46.1253465" cy="26.446617" rx="4.51247483" ry="4.49093272"></ellipse>
                        <path d="M46.1253465,21.9559338 C45.6305692,21.9566213 45.1392968,22.0385587 44.6713269,22.1984442 C46.499816,22.8164144 47.7297371,24.5247912 47.7297371,26.446617 C47.7297371,28.3684428 46.499816,30.0768196 44.6713269,30.6947899 C46.3653872,31.269699 48.2407427,30.7935007 49.4509667,29.4811233 C50.6611906,28.168746 50.9773671,26.2684279 50.2567924,24.6378626 C49.5362177,23.0072973 47.9151897,21.9549088 46.1253465,21.9556839 L46.1253465,21.9559338 Z" id="Path" fill="#FFDF1F"></path>
                        <ellipse id="Oval" fill="#FFE64E" cx="71.3199977" cy="36.0522231" rx="3.88574222" ry="3.86719206"></ellipse>
                        <path d="M71.3199977,32.1852805 C70.8761774,32.1861118 70.4358077,32.262912 70.0181487,32.4123221 C71.5667826,32.9589732 72.601631,34.4170342 72.601631,36.0523479 C72.601631,37.6876615 71.5667826,39.1457225 70.0181487,39.6923736 C71.4758471,40.2090333 73.1026338,39.8153266 74.1591705,38.6901843 C75.2157072,37.565042 75.5004344,35.9231117 74.8839501,34.5106141 C74.2674658,33.0981164 72.867379,32.1845189 71.3199977,32.1850308 L71.3199977,32.1852805 Z" id="Path" fill="#FFDF1F"></path>
                        <ellipse id="Oval" fill="#FFE64E" cx="20.6800023" cy="36.0522231" rx="3.88574222" ry="3.86719206"></ellipse>
                        <path d="M20.6800023,32.1852802 C20.2387704,32.1861481 19.8009358,32.2620912 19.3854234,32.4098272 C20.9379054,32.9542994 21.9763513,34.4142744 21.9763513,36.0524726 C21.9763513,37.6906708 20.9379054,39.1506458 19.3854234,39.695118 C20.8432896,40.2086855 22.4683795,39.8126193 23.5228401,38.6867486 C24.5773006,37.5608779 24.8602084,35.9197331 24.2431125,34.5084567 C23.6260165,33.0971804 22.2265021,32.1846858 20.6800023,32.1852802 L20.6800023,32.1852802 Z" id="Path" fill="#FFDF1F"></path>
                    </g>
                </g>
            </g>
        </g>
    </g>
</svg>