<svg xmlns="http://www.w3.org/2000/svg" width="64pt" height="64pt" viewBox="0 0 64 64" style="isolation:isolate"><defs><clipPath id="a"><rect width="64" height="64"/></clipPath></defs><g clip-path="url(#a)"><path fill-rule="evenodd" d=" M 6.565 27.231 L 19.609 27.231 C 20.329 27.231 20.913 27.815 20.913 28.535 L 20.913 41.09 C 20.913 41.81 20.329 42.394 19.609 42.394 L 6.565 42.394 C 5.845 42.394 5.261 41.81 5.261 41.09 L 5.261 28.535 C 5.261 27.815 5.845 27.231 6.565 27.231 L 6.565 27.231 L 6.565 27.231 L 6.565 27.231 Z  M 48.709 29.025 L 50.013 29.025 C 50.373 29.025 50.665 29.318 50.665 29.677 L 50.665 32.286 C 50.665 32.646 50.373 32.938 50.013 32.938 L 48.709 32.938 L 26.644 32.938 L 25.34 32.938 C 24.98 32.938 24.688 32.646 24.688 32.286 L 24.688 29.677 C 24.688 29.318 24.98 29.025 25.34 29.025 L 26.644 29.025 L 48.709 29.025 L 48.709 29.025 L 48.709 29.025 Z  M 49.317 38.481 L 50.261 38.481 C 50.621 38.481 50.913 38.773 50.913 39.133 L 50.913 41.742 C 50.913 42.102 50.621 42.394 50.261 42.394 L 49.317 42.394 L 32.292 42.394 L 31.348 42.394 C 30.988 42.394 30.696 42.102 30.696 41.742 L 30.696 39.133 C 30.696 38.773 30.988 38.481 31.348 38.481 L 32.292 38.481 L 49.317 38.481 L 49.317 38.481 Z  M 5.913 11.13 L 50.261 11.13 C 52.421 11.13 54.174 12.884 54.174 15.043 L 54.174 46.348 C 54.174 47.068 54.758 47.652 55.478 47.652 L 55.478 47.652 C 56.198 47.652 56.783 47.068 56.783 46.348 L 56.783 18.957 C 56.783 17.517 57.952 16.348 59.391 16.348 L 59.391 16.348 C 60.831 16.348 62 17.517 62 18.957 L 62 48.957 C 62 51.116 60.247 52.87 58.087 52.87 L 5.913 52.87 C 3.753 52.87 2 51.116 2 48.957 L 2 15.043 C 2 12.884 3.753 11.13 5.913 11.13 L 5.913 11.13 L 5.913 11.13 L 5.913 11.13 Z  M 48.957 19.57 L 50.261 19.57 C 50.621 19.57 50.913 19.862 50.913 20.222 L 50.913 22.83 C 50.913 23.19 50.621 23.483 50.261 23.483 L 48.957 23.483 L 7.217 23.483 L 5.913 23.483 C 5.553 23.483 5.261 23.19 5.261 22.83 L 5.261 20.222 C 5.261 19.862 5.553 19.57 5.913 19.57 L 7.217 19.57 L 48.957 19.57 Z "/></g></svg>