<svg xmlns="http://www.w3.org/2000/svg" enable-background="new 0 0 24 24" viewBox="0 0 24 24"><path d="M14.5 3.75c0-.5522-.4473-1-1-1h-.5504C12.8364 2.322 12.464 2 12 2c-.4863 0-.8721.3536-.9623.813C10.1582 3.036 9.5 3.8729 9.5 4.875 9.5 6.0469 10.3975 7 11.5 7l.9541-.0117C12.4639 6.9956 12.5 7.04 12.5 7.125c0 .0771-.0303.1211-.0088.125H10.5c-.5527 0-1 .4478-1 1s.4473 1 1 1h.5505C11.1636 9.678 11.536 10 12 10c.4864 0 .8721-.3536.9623-.813C13.8417 8.9639 14.5 8.127 14.5 7.125 14.5 5.9531 13.6025 5 12.5 5l-.9541.0117C11.5361 5.0044 11.5 4.96 11.5 4.875c0-.0771.0303-.1211.0088-.125H13.5C14.0527 4.75 14.5 4.3022 14.5 3.75zM6 22h7.0518c4.0137 0 7.6299-2.3843 9.2109-6.0742.2793-.6504.2129-1.3911-.1768-1.9819-.6191-.9375-1.9766-1.2158-2.918-.5913l-.4502.3003c-.8398.5596-1.7666.9517-2.7373 1.1636C15.9932 14.7129 16 14.6069 16 14.5c0-1.3784-1.1211-2.5-2.5-2.5h-3.2637l-3.7891-1.8945C6.3086 10.0361 6.1553 10 6 10c-2.2061 0-4 1.7944-4 4v4C2 20.2056 3.7939 22 6 22zM4 14c0-1.0308.7842-1.8818 1.7861-1.9888l3.7666 1.8833C9.6914 13.9639 9.8447 14 10 14h3.5c.2754 0 .5.2241.5.5S13.7754 15 13.5 15H9c-.5527 0-1 .4478-1 1s.4473 1 1 1h5.2686c1.9854 0 3.9072-.582 5.5586-1.6831L20.333 15l.0918.1382C19.1582 18.0918 16.2646 20 13.0518 20H6c-1.1025 0-2-.897-2-2V14z"/></svg>