<?xml version="1.0" encoding="UTF-8"?>
<svg width="60px" height="60px" viewBox="0 0 60 60" version="1.1" xmlns="http://www.w3.org/2000/svg" xmlns:xlink="http://www.w3.org/1999/xlink">
    <title>github_icon</title>
    <g id="Page-1" stroke="none" stroke-width="1" fill="none" fill-rule="evenodd">
        <g id="index.html" transform="translate(-830.000000, -5523.000000)" fill-rule="nonzero">
            <g id="github_icon" transform="translate(830.000000, 5523.000000)">
                <path d="M20.562,58.4616324 C26.6847843,60.5117622 33.3085642,60.5128152 39.432,58.4646324 C38.9791507,58.6103742 38.4838416,58.5293879 38.1009923,58.2470037 C37.7181429,57.9646195 37.4944952,57.5153137 37.5,57.039617 C37.5,56.025606 37.539,52.8005712 37.539,48.7895278 C37.7017459,46.7332519 36.9627259,44.7077678 35.514,43.2394677 C42.189,42.4894596 49.2,39.939432 49.2,28.4253075 C49.2484943,25.4430415 48.1473898,22.5565052 46.125,20.3642203 C47.0420721,17.7728381 46.9347598,14.9290315 45.825,12.4141343 C45.825,12.4141343 43.311,11.5891254 37.575,15.4891676 C32.6661452,14.139003 27.4838548,14.139003 22.575,15.4891676 C16.836,11.6251258 14.325,12.4111343 14.325,12.4111343 C13.2149389,14.9259619 13.1076222,17.7698846 14.025,20.3612203 C12.0084486,22.5571187 10.9082674,25.4412346 10.95,28.4223075 C10.95,39.8974316 17.925,42.4864596 24.6,43.2364677 C23.496,44.2984792 22.818,45.7234946 22.686,47.2475111 C21.2022573,48.0796365 19.4486266,48.2879325 17.8112427,47.8265341 C16.1738588,47.3651357 14.7869852,46.271877 13.956,44.7874845 L13.95,44.7724843 C13.0058667,43.0560157 11.2836069,41.9082034 9.336,41.6974511 C6.825,41.7364515 8.325,43.1224665 9.375,43.6864726 C10.728,44.8264849 11.784,46.2815006 12.45,47.9225184 C13.05,49.6115367 15,52.8365715 22.536,51.4475565 C22.536,53.9615837 22.575,56.3226093 22.575,57.036617 C22.575,57.8136254 22.02,58.6896349 20.565,58.4616324 L20.562,58.4616324 Z" id="Path" fill="#B2B1FF"></path>
                <path d="M30,0 C13.431,0 0,13.4311453 0,30.0003245 C0,43.2694681 8.625,54.5075896 20.565,58.4646324 C22.02,58.6896349 22.575,57.8166254 22.575,57.039617 C22.575,56.3256093 22.539,53.9645838 22.539,51.4505566 C15,52.8395716 13.05,49.6145367 12.45,47.9255184 C11.7838974,46.284909 10.7285293,44.8310594 9.375,43.6894726 C8.325,43.1254665 6.825,41.7394515 9.336,41.7004511 C11.286,41.9104534 13.005,43.0594658 13.95,44.7754843 L13.959,44.7934845 C14.7899852,46.2778771 16.1768588,47.3711358 17.8142427,47.8325342 C19.4516266,48.2939326 21.2052573,48.0856366 22.689,47.2535112 C22.818,45.7234946 23.499,44.3014792 24.6,43.2394677 C17.925,42.4894596 10.95,39.9004316 10.95,28.4253075 C10.9082674,25.4442346 12.0084486,22.5601187 14.025,20.3642203 C13.1079279,17.7728381 13.2152402,14.9290315 14.325,12.4141343 C14.325,12.4141343 16.836,11.6251258 22.575,15.4891676 C27.4838548,14.139003 32.6661452,14.139003 37.575,15.4891676 C43.311,11.5891254 45.825,12.4141343 45.825,12.4141343 C46.935,14.9281615 47.043,17.7721922 46.125,20.3642203 C48.1473898,22.5565052 49.2484943,25.4430415 49.2,28.4253075 C49.2,39.939432 42.186,42.4894596 35.514,43.2394677 C36.96,44.7094836 37.701,46.7315055 37.539,48.7895278 C37.539,52.8005712 37.5,56.025606 37.5,57.039617 C37.4938395,57.5151155 37.7166857,57.9645736 38.0988881,58.2475134 C38.4810905,58.5304533 38.9760249,58.6123595 39.429,58.4676325 C51.372,54.5105897 60,43.2724681 60,30.0003245 C60,13.4311453 46.569,0 30,0 Z" id="Path" fill="#6563FF"></path>
            </g>
        </g>
    </g>
</svg>