<svg xmlns="http://www.w3.org/2000/svg" enable-background="new 0 0 24 24" viewBox="0 0 24 24"><path d="M11 5c-.5527 0-1 .4478-1 1v3c0 .0128.0068.0234.0073.0361.0042.1171.0222.2343.0689.3467.0004.001.0012.0016.0015.0026.0038.0091.0109.0158.0149.0247.0451.0999.1064.1873.1786.2651.0237.0256.05.0458.0762.0688.0637.0558.1323.1022.2081.1403.0319.0161.0615.0325.0953.0452C10.7614 9.9712 10.8773 10 11 10h3c.5527 0 1-.4478 1-1s-.4473-1-1-1h-.5859l4.293-4.293c.3906-.3906.3906-1.0234 0-1.4141C17.5117 2.0977 17.2559 2 17 2s-.5117.0977-.707.293L12 6.5859V6C12 5.4478 11.5527 5 11 5zM19.168 13.3525l-.4502.3003c-.8398.5596-1.7666.9517-2.7373 1.1636C15.9932 14.7129 16 14.6069 16 14.5c0-1.3784-1.1211-2.5-2.5-2.5h-3.2637l-3.7891-1.8945C6.3086 10.0361 6.1553 10 6 10c-2.2061 0-4 1.7944-4 4v4c0 2.2056 1.7939 4 4 4h7.0518c4.0137 0 7.6299-2.3843 9.2109-6.0742.2793-.6504.2129-1.3911-.1768-1.9819C21.4668 13.0063 20.1094 12.728 19.168 13.3525zM13.0518 20H6c-1.1025 0-2-.897-2-2v-4c0-1.0308.7842-1.8818 1.7861-1.9888l3.7666 1.8833C9.6914 13.9639 9.8447 14 10 14h3.5c.2754 0 .5.2241.5.5S13.7754 15 13.5 15H9c-.5527 0-1 .4478-1 1s.4473 1 1 1h5.2686c1.9854 0 3.9072-.582 5.5586-1.6831L20.333 15l.0918.1382C19.1582 18.0918 16.2646 20 13.0518 20z"/></svg>