<?xml version="1.0" encoding="UTF-8"?>
<svg width="60px" height="60px" viewBox="0 0 60 60" version="1.1" xmlns="http://www.w3.org/2000/svg" xmlns:xlink="http://www.w3.org/1999/xlink">
    <title>instagram_icon</title>
    <g id="Page-1" stroke="none" stroke-width="1" fill="none" fill-rule="evenodd">
        <g id="index.html" transform="translate(-1030.000000, -5523.000000)" fill-rule="nonzero">
            <g id="instagram_icon" transform="translate(1030.000000, 5523.000000)">
                <path d="M56.80899,16.69134 C56.7855,14.60262 56.40225,12.53355 55.67604,10.575 C55.14828,9.14421 54.30645,7.84992 53.21253,6.78735 C52.15014,5.69328 50.85585,4.85148 49.425,4.32396 C47.46594,3.5997 45.39726,3.21651 43.30878,3.19101 C39.834,3.03528 38.79411,3 29.99919,3 C21.20754,3 20.16438,3.03213 16.69134,3.19101 C14.60262,3.2145 12.53355,3.59775 10.575,4.32396 C9.14367,4.8507 7.84917,5.69265 6.78735,6.78747 C5.69514,7.85205 4.85364,9.1464 4.32384,10.57662 C3.5997,12.53574 3.21651,14.60445 3.19089,16.69296 C3.03528,20.1675 3,21.20754 3,30.00231 C3,38.79708 3.03213,39.83874 3.19266,43.31031 C3.21618,45.39903 3.59943,47.4681 4.32561,49.42668 C4.85214,50.8575 5.69409,52.15137 6.789,53.21235 C7.85217,54.30555 9.14628,55.14726 10.57665,55.67586 C12.53511,56.40222 14.60415,56.78553 16.69284,56.80899 C20.16438,56.96952 21.20754,57 29.99919,57 C38.79411,57 39.83727,56.96787 43.30866,56.80899 C45.39738,56.78553 47.46639,56.40222 49.42488,55.67586 C52.29723,54.56838 54.56772,52.29855 55.67604,49.42653 C56.40054,47.4675 56.78376,45.39873 56.80899,43.31016 C56.96799,39.83562 57,38.79246 57,30.00081 C57,21.20589 56.96787,20.166 56.80899,16.69134 Z" id="Path" fill="#B2B1FF"></path>
                <path d="M47.37945,16.8534 C46.6302,14.90853 45.09309,13.37145 43.14825,12.6222 C41.82225,12.13242 40.42224,11.87307 39.00879,11.85534 C36.65736,11.74842 35.95074,11.72535 30.00093,11.72535 C24.05112,11.72535 23.34522,11.74695 20.99562,11.85498 C19.58202,11.87085 18.18177,12.13026 16.85631,12.62184 C14.91138,13.37103 13.37421,14.90814 12.62493,16.85304 C12.13536,18.17904 11.87607,19.57896 11.85828,20.99232 C11.7519,23.34393 11.72865,24.04779 11.72865,30.00036 C11.72865,35.95293 11.75025,36.65862 11.85828,39.00825 C11.87421,40.42185 12.13353,41.82216 12.62493,43.14771 C13.37523,45.09153 14.91213,46.62771 16.85631,47.37708 C18.18189,47.86824 19.58208,48.12762 20.99562,48.14391 L20.99562,48.1443 C23.34447,48.2523 24.04833,48.27393 30.00093,48.27393 C35.95353,48.27393 36.65919,48.25233 39.00879,48.1443 C40.42242,48.12825 41.8227,47.86884 43.14825,47.37744 C45.09237,46.62801 46.62918,45.09186 47.37945,43.14807 C47.86971,41.82219 48.12909,40.42212 48.14631,39.00861 C48.25431,36.65697 48.27594,35.95332 48.27594,30.00072 C48.27594,24.04812 48.25434,23.34429 48.14631,20.99268 C48.13026,19.57911 47.87085,18.17889 47.37945,16.8534 Z M30.00093,41.44575 C23.67978,41.44575 18.55518,36.32175 18.55518,30.0006 C18.55518,30.00039 18.55518,30.00021 18.55518,30 L18.55518,30 C18.55542,23.67873 23.67984,18.55443 30.00111,18.55443 C36.32238,18.55443 41.44668,23.67891 41.44668,30.00018 C41.44668,36.32145 36.3222,41.44575 30.00093,41.44575 Z M41.89893,20.7762733 C40.42167,20.77083 39.22851,19.56888 39.2339215,18.09162 C39.23934,16.62162 40.43001,15.43143 41.90001,15.426618 L41.901,15.426618 C43.37826,15.42225 44.57937,16.61622 44.583792,18.09348 C44.58816,19.57074 43.39419,20.77185 41.91693,20.7762733 C41.9109,20.7762733 41.90487,20.7762733 41.89884,20.7762733 L41.89893,20.7762733 L41.89893,20.7762733 Z" id="Shape" fill="#6563FF"></path>
                <path d="M30.00093,22.56921 C25.89708,22.56921 22.57011,25.89594 22.57011,29.99979 C22.57011,34.10364 25.89684,37.43061 30.00069,37.43061 C34.10454,37.43061 37.43151,34.10388 37.43151,30.00003 C37.43151,30.00003 37.43151,30 37.43151,30 C37.43202,25.8966 34.10592,22.56972 30.00252,22.56921 C30.00198,22.56921 30.00147,22.56921 30.00093,22.56921 Z" id="Path" fill="#6563FF"></path>
                <path d="M59.78778,15.21258 C59.76165,12.89181 59.3358,10.59291 58.52892,8.4168 C57.94251,6.82701 57.00717,5.38893 55.79169,4.20831 C54.61125,2.99262 53.17311,2.05725 51.5832,1.47108 C49.40649,0.66633 47.10795,0.24057 44.78742,0.21222 C40.92663,0.03918 39.77124,0 29.99907,0 C20.23059,0 19.07154,0.0357 15.21258,0.21222 C12.89181,0.23835 10.59291,0.6642 8.4168,1.47108 C6.82644,2.05632 5.38812,2.99184 4.20831,4.20831 C2.99475,5.39115 2.05974,6.82932 1.47108,8.41845 C0.66642,10.59525 0.24066,12.89382 0.21222,15.21441 C0.03918,19.07502 0,20.23059 0,30.00255 C0,39.77451 0.0357,40.93194 0.21405,44.78907 C0.24024,47.10987 0.66612,49.40883 1.473,51.585 C2.05806,53.17485 2.99361,54.6126 4.21023,55.79148 C5.39154,57.00612 6.82941,57.94134 8.41872,58.52871 C10.5948,59.33577 12.89373,59.76168 15.2145,59.78775 C19.07154,59.96613 20.23059,60 29.99907,60 C39.77124,60 40.93029,59.9643 44.78742,59.78778 C47.10819,59.76174 49.40712,59.3358 51.5832,58.52874 C54.77469,57.2982 57.29748,54.77616 58.52892,51.585 C59.33397,49.40832 59.75976,47.10966 59.78778,44.78904 C59.9643,40.92846 60,39.76941 60,30.00093 C60,20.22876 59.9643,19.07337 59.78778,15.21258 Z M52.15614,39.18969 C52.12044,41.03889 51.77034,42.86853 51.12084,44.60028 C49.96284,47.59473 47.59566,49.96197 44.60121,51.12 C42.86928,51.76863 41.03985,52.11867 39.1908,52.15527 C36.81408,52.26513 36.05421,52.29027 30.00093,52.29027 C23.94765,52.29027 23.18904,52.26327 20.81103,52.15527 C18.96201,52.11846 17.13261,51.76842 15.40062,51.12 C12.40608,49.96212 10.03887,47.59488 8.88099,44.60034 C8.23236,42.86835 7.88229,41.03886 7.84569,39.18975 C7.73583,36.81324 7.71069,36.05334 7.71069,30.00006 C7.71069,23.94678 7.73595,23.18688 7.84569,20.81019 C7.88232,18.96114 8.23236,17.13171 8.88099,15.39978 C10.03869,12.40512 12.40596,10.03776 15.40062,8.88 C17.13255,8.23134 18.96195,7.88124 20.811,7.84461 L20.81193,7.84461 C23.18991,7.73493 23.95107,7.70961 30.00345,7.70961 C36.05583,7.70961 36.81552,7.73595 39.19245,7.84461 C41.04162,7.88079 42.87117,8.23092 44.60304,8.88 C47.59662,10.03872 49.96299,12.40575 51.12084,15.39966 C51.76959,17.13156 52.11966,18.96102 52.15614,20.81007 C52.26414,23.18676 52.28943,23.94666 52.28943,29.99994 C52.28943,36.05322 52.26417,36.81135 52.15614,39.18969 Z" id="Shape" fill="#6563FF"></path>
            </g>
        </g>
    </g>
</svg>