<?xml version="1.0" encoding="UTF-8"?>
<svg width="60px" height="60px" viewBox="0 0 60 60" version="1.1" xmlns="http://www.w3.org/2000/svg" xmlns:xlink="http://www.w3.org/1999/xlink">
    <title>linkedin_icon</title>
    <g id="Page-1" stroke="none" stroke-width="1" fill="none" fill-rule="evenodd">
        <g id="index.html" transform="translate(-630.000000, -5523.000000)" fill-rule="nonzero">
            <g id="linkedin_icon" transform="translate(630.000000, 5523.000000)">
                <path d="M9.1285973,23.1332166 L18.1907829,23.1332166 L18.1907829,50.2255145 L9.1285973,50.2255145 L9.1285973,23.1332166 Z M13.6596901,19.4343124 L13.5993158,19.4343124 C11.8262432,19.5509622 10.1372727,18.6690132 9.22811994,17.1517553 C8.31896716,15.6344975 8.34342591,13.7385925 9.29142121,12.244996 C10.2394165,10.7513994 11.9505839,9.9127706 13.7200644,10.074555 C15.4931243,9.94518401 17.1891465,10.8159712 18.1089144,12.3279182 C19.0286822,13.8398653 19.0164452,15.7369442 18.0772484,17.237049 C17.1380516,18.7371538 15.4309354,19.5862618 13.6596901,19.4343124 Z M50.8653653,50.2255145 L41.8031797,50.2255145 L41.8031797,35.73589 C41.8031797,32.0909844 40.493057,29.6070488 37.2147313,29.6070488 C35.1208048,29.6196967 33.2604598,30.9378407 32.5659086,32.9009635 C32.3304488,33.6089451 32.2308312,34.3529258 32.264037,35.0969065 L32.264037,50.2255145 L23.2078889,50.2255145 C23.2078889,50.2165148 23.3286376,25.6741507 23.2078889,23.1362165 L32.2700745,23.1362165 L32.2700745,26.976117 C33.9387965,24.0869963 37.0864277,22.3605061 40.4357013,22.497233 C46.3976655,22.497233 50.868384,26.3701327 50.868384,34.691917 L50.868384,50.2255145 L50.8653653,50.2255145 Z" id="Shape" fill="#B2B1FF"></path>
                <path d="M55.5624874,0.000397373529 L4.43751258,0.000397373529 C2.01784074,-0.0291989582 0.0314763455,1.89511317 0,4.2997046 L0,55.7033726 C0.0332058764,58.1033104 2.01952103,60.0292605 4.43751258,59.9996398 L55.5624874,59.9996398 C56.7242065,60.0144776 57.8444168,59.5704015 58.6766337,58.7647449 C59.5088506,57.9590883 59.9848875,56.8578617 60,55.7033726 L60,4.2997046 C59.9856861,3.14416543 59.5095825,2.04170941 58.6766233,1.23531971 C57.8436641,0.428930007 56.7222235,-0.015200248 55.5594687,0.000397373529 L55.5624874,0.000397373529 Z M18.1907829,50.2255145 L9.1285973,50.2255145 L9.1285973,23.1332166 L18.1907829,23.1332166 L18.1907829,50.2255145 L18.1907829,50.2255145 Z M14.4022942,19.4403123 C14.1549826,19.4576178 13.9066859,19.4556117 13.6596901,19.4343124 L13.5993158,19.4343124 C11.8262432,19.5509622 10.1372727,18.6690132 9.22811994,17.1517553 C8.31896716,15.6344975 8.34342591,13.7385925 9.29142121,12.244996 C10.2394165,10.7513994 11.9505839,9.9127706 13.7200644,10.074555 C16.3225492,9.88733535 18.5850024,11.83216 18.7733949,14.4184424 C18.9617875,17.0047248 17.0047791,19.2530925 14.4022942,19.4403123 L14.4022942,19.4403123 Z M50.8653653,50.2255145 L41.8031797,50.2255145 L41.8031797,35.73589 C41.8031797,32.0909844 40.493057,29.6070488 37.2147313,29.6070488 C35.1208048,29.6196967 33.2604598,30.9378407 32.5659086,32.9009635 C32.3329465,33.6088855 32.2306782,34.3528283 32.264037,35.0969065 L32.264037,50.2255145 L23.2078889,50.2255145 C23.2078889,50.2165148 23.3286376,25.6741507 23.2078889,23.1362165 L32.2700745,23.1362165 L32.2700745,26.976117 C33.9387965,24.0869963 37.0864277,22.3605061 40.4357013,22.497233 C46.3976655,22.497233 50.868384,26.3701327 50.868384,34.691917 L50.868384,50.2255145 L50.8653653,50.2255145 Z" id="Shape" fill="#6563FF"></path>
            </g>
        </g>
    </g>
</svg>