<?xml version="1.0" encoding="UTF-8"?>
<svg width="60px" height="50px" viewBox="0 0 60 50" version="1.1" xmlns="http://www.w3.org/2000/svg" xmlns:xlink="http://www.w3.org/1999/xlink">
    <title>twitter_icon</title>
    <g id="Page-1" stroke="none" stroke-width="1" fill="none" fill-rule="evenodd">
        <g id="index.html" transform="translate(-1230.000000, -5528.000000)" fill="#6563FF" fill-rule="nonzero">
            <g id="twitter_icon" transform="translate(1230.000000, 5528.000000)">
                <path d="M55.3567437,12.4491003 C55.386736,13.0023508 55.386736,13.5556014 55.386736,14.0789465 C55.3793658,17.4836658 54.8814047,20.8696658 53.9081168,24.1331541 C49.6855998,39.6066189 35.4765146,50.2544315 19.3960048,49.995375 C12.5159851,50.0030466 5.78037218,48.027781 0,44.3073611 C1.00199807,44.430284 2.0106698,44.4912083 3.02022219,44.4897843 C8.71412469,44.495039 14.2439181,42.5882858 18.7181794,39.0769004 C13.3162519,38.9758723 8.57332039,35.4692038 6.90722115,30.3445131 C7.69209338,30.4785596 8.48636143,30.5505567 9.2826094,30.5598322 C10.4184349,30.5640628 11.5492155,30.4090307 12.6417443,30.0992885 C7.07950706,28.9995266 2.93984802,24.3295763 2.52834886,18.6903647 C2.4776259,18.3750344 2.45753796,18.0555594 2.46836431,17.7363813 L2.46836431,17.5838636 C4.22560442,18.5586033 6.19278251,19.0961644 8.20288747,19.1509085 C4.68609333,16.8158588 2.57680122,12.8789843 2.58533419,8.66606264 C2.58336871,6.43231052 3.16867486,4.23706537 4.282897,2.29919535 C10.7068457,10.1924842 20.1939263,14.9897033 30.3761771,15.4934736 C29.0703022,9.93139057 31.6752221,4.18839739 36.7264864,1.49312636 C41.7777508,-1.20214467 48.014954,-0.177162044 51.9316258,3.99184302 C54.7714281,3.43336026 57.4941793,2.39353762 59.9815526,0.91756421 C60.1975949,5.25012116 58.5076397,9.46113825 55.3537445,12.4491003 L55.3567437,12.4491003 Z" id="Path"></path>
            </g>
        </g>
    </g>
</svg>